<mxfile host="app.diagrams.net" modified="2023-04-13T03:56:09.977Z" agent="Mozilla/5.0 (Windows NT 10.0; Win64; x64) AppleWebKit/537.36 (KHTML, like Gecko) Chrome/112.0.0.0 Safari/537.36" etag="_QYO7HsvwAs9iRBfVyZO" version="21.1.7" type="github" pages="4">
  <diagram name="Page-1" id="c7488fd3-1785-93aa-aadb-54a6760d102a">
    <mxGraphModel dx="1341" dy="804" grid="1" gridSize="10" guides="1" tooltips="1" connect="1" arrows="1" fold="1" page="1" pageScale="1" pageWidth="1100" pageHeight="850" background="none" math="0" shadow="0">
      <root>
        <mxCell id="0" />
        <mxCell id="1" parent="0" />
        <mxCell id="2b4e8129b02d487f-1" value="Pool" style="swimlane;html=1;childLayout=stackLayout;horizontal=1;startSize=20;horizontalStack=0;rounded=0;shadow=0;labelBackgroundColor=none;strokeWidth=1;fontFamily=Verdana;fontSize=8;align=center;" parent="1" vertex="1">
          <mxGeometry x="180" y="70" width="680" height="470" as="geometry" />
        </mxCell>
        <mxCell id="2b4e8129b02d487f-2" value="客户API" style="swimlane;html=1;startSize=20;horizontal=0;" parent="2b4e8129b02d487f-1" vertex="1">
          <mxGeometry y="20" width="680" height="150" as="geometry" />
        </mxCell>
        <mxCell id="2b4e8129b02d487f-18" style="edgeStyle=orthogonalEdgeStyle;rounded=0;html=1;labelBackgroundColor=none;startArrow=none;startFill=0;startSize=5;endArrow=classicThin;endFill=1;endSize=5;jettySize=auto;orthogonalLoop=1;strokeWidth=1;fontFamily=Verdana;fontSize=8" parent="2b4e8129b02d487f-2" source="2b4e8129b02d487f-5" target="2b4e8129b02d487f-6" edge="1">
          <mxGeometry relative="1" as="geometry" />
        </mxCell>
        <mxCell id="2b4e8129b02d487f-5" value="" style="ellipse;whiteSpace=wrap;html=1;rounded=0;shadow=0;labelBackgroundColor=none;strokeWidth=1;fontFamily=Verdana;fontSize=8;align=center;fillColor=#ffe6cc;strokeColor=#d79b00;" parent="2b4e8129b02d487f-2" vertex="1">
          <mxGeometry x="60" y="60" width="30" height="30" as="geometry" />
        </mxCell>
        <mxCell id="2b4e8129b02d487f-6" value="创建订单" style="rounded=1;whiteSpace=wrap;html=1;shadow=0;labelBackgroundColor=none;strokeWidth=1;fontFamily=Verdana;fontSize=8;align=center;" parent="2b4e8129b02d487f-2" vertex="1">
          <mxGeometry x="120" y="56.49999999999997" width="70" height="37" as="geometry" />
        </mxCell>
        <mxCell id="2b4e8129b02d487f-11" value="" style="ellipse;whiteSpace=wrap;html=1;rounded=0;shadow=0;labelBackgroundColor=none;strokeWidth=2;fontFamily=Verdana;fontSize=8;align=center;fillColor=#ffe6cc;strokeColor=#d79b00;" parent="2b4e8129b02d487f-2" vertex="1">
          <mxGeometry x="380" y="60" width="30" height="30" as="geometry" />
        </mxCell>
        <mxCell id="eg-5MCdYRZrcCjl5ns9g-2" value="" style="ellipse;whiteSpace=wrap;html=1;rounded=0;shadow=0;labelBackgroundColor=none;strokeWidth=2;fontFamily=Verdana;fontSize=8;align=center;fillColor=#ffe6cc;strokeColor=#d79b00;" parent="2b4e8129b02d487f-2" vertex="1">
          <mxGeometry x="533" y="60" width="30" height="30" as="geometry" />
        </mxCell>
        <mxCell id="2b4e8129b02d487f-3" value="KDN-EX" style="swimlane;html=1;startSize=20;horizontal=0;" parent="2b4e8129b02d487f-1" vertex="1">
          <mxGeometry y="170" width="680" height="150" as="geometry" />
        </mxCell>
        <mxCell id="cXyiy-AwKJkyrSfhlRhQ-1" value="映射数据" style="shape=parallelogram;html=1;strokeWidth=2;perimeter=parallelogramPerimeter;whiteSpace=wrap;rounded=1;arcSize=12;size=0.23;fillColor=#dae8fc;strokeColor=#6c8ebf;" parent="2b4e8129b02d487f-3" vertex="1">
          <mxGeometry x="240" y="52.75" width="90" height="39" as="geometry" />
        </mxCell>
        <mxCell id="cXyiy-AwKJkyrSfhlRhQ-2" value="筛选物品类型" style="rounded=1;whiteSpace=wrap;html=1;strokeWidth=2;arcSize=12;fillColor=#d5e8d4;strokeColor=#82b366;" parent="2b4e8129b02d487f-3" vertex="1">
          <mxGeometry x="120" y="52.75" width="80" height="39" as="geometry" />
        </mxCell>
        <mxCell id="cXyiy-AwKJkyrSfhlRhQ-4" value="存在映射？" style="shape=mxgraph.bpmn.shape;html=1;verticalLabelPosition=bottom;labelBackgroundColor=#ffffff;verticalAlign=top;perimeter=rhombusPerimeter;background=gateway;outline=none;symbol=parallelGw;rounded=1;shadow=0;strokeWidth=1;fontFamily=Verdana;fontSize=8;align=center;" parent="2b4e8129b02d487f-3" vertex="1">
          <mxGeometry x="370" y="52.75" width="50" height="35.5" as="geometry" />
        </mxCell>
        <mxCell id="cXyiy-AwKJkyrSfhlRhQ-5" value="" style="edgeStyle=orthogonalEdgeStyle;rounded=0;orthogonalLoop=1;jettySize=auto;html=1;" parent="2b4e8129b02d487f-3" edge="1">
          <mxGeometry relative="1" as="geometry">
            <mxPoint x="320" y="70" as="sourcePoint" />
            <mxPoint x="370" y="70" as="targetPoint" />
          </mxGeometry>
        </mxCell>
        <mxCell id="YGkNrmqlYQesp8JgBSFn-2" value="" style="endArrow=classic;html=1;rounded=0;entryX=0.5;entryY=1;entryDx=0;entryDy=0;" parent="2b4e8129b02d487f-3" edge="1">
          <mxGeometry width="50" height="50" relative="1" as="geometry">
            <mxPoint x="395" y="51" as="sourcePoint" />
            <mxPoint x="395" y="-59" as="targetPoint" />
          </mxGeometry>
        </mxCell>
        <mxCell id="YGkNrmqlYQesp8JgBSFn-3" value="NO" style="edgeLabel;html=1;align=center;verticalAlign=middle;resizable=0;points=[];" parent="YGkNrmqlYQesp8JgBSFn-2" vertex="1" connectable="0">
          <mxGeometry x="0.3091" relative="1" as="geometry">
            <mxPoint as="offset" />
          </mxGeometry>
        </mxCell>
        <mxCell id="eg-5MCdYRZrcCjl5ns9g-1" style="edgeStyle=orthogonalEdgeStyle;rounded=0;html=1;labelBackgroundColor=none;startArrow=none;startFill=0;startSize=5;endArrow=classicThin;endFill=1;endSize=5;jettySize=auto;orthogonalLoop=1;strokeWidth=1;fontFamily=Verdana;fontSize=8;" parent="2b4e8129b02d487f-3" edge="1">
          <mxGeometry relative="1" as="geometry">
            <mxPoint x="394.5" y="90" as="sourcePoint" />
            <mxPoint x="395" y="210" as="targetPoint" />
            <Array as="points">
              <mxPoint x="395" y="120" />
              <mxPoint x="395" y="120" />
            </Array>
          </mxGeometry>
        </mxCell>
        <mxCell id="vy70RR6y7A3GXflHRzFj-1" value="" style="edgeStyle=orthogonalEdgeStyle;rounded=0;orthogonalLoop=1;jettySize=auto;html=1;" parent="2b4e8129b02d487f-3" edge="1">
          <mxGeometry relative="1" as="geometry">
            <mxPoint x="200" y="70" as="sourcePoint" />
            <mxPoint x="250" y="70" as="targetPoint" />
          </mxGeometry>
        </mxCell>
        <mxCell id="2b4e8129b02d487f-4" value="KDN渠道" style="swimlane;html=1;startSize=20;horizontal=0;" parent="2b4e8129b02d487f-1" vertex="1">
          <mxGeometry y="320" width="680" height="150" as="geometry">
            <mxRectangle y="320" width="680" height="30" as="alternateBounds" />
          </mxGeometry>
        </mxCell>
        <mxCell id="YGkNrmqlYQesp8JgBSFn-6" value="下发订单" style="rounded=1;whiteSpace=wrap;html=1;strokeWidth=2;arcSize=12;fillColor=#d5e8d4;strokeColor=#82b366;" parent="2b4e8129b02d487f-4" vertex="1">
          <mxGeometry x="355" y="61.5" width="80" height="39" as="geometry" />
        </mxCell>
        <mxCell id="2b4e8129b02d487f-24" style="edgeStyle=orthogonalEdgeStyle;rounded=0;html=1;labelBackgroundColor=none;startArrow=none;startFill=0;startSize=5;endArrow=classicThin;endFill=1;endSize=5;jettySize=auto;orthogonalLoop=1;strokeWidth=1;fontFamily=Verdana;fontSize=8" parent="2b4e8129b02d487f-1" source="2b4e8129b02d487f-6" edge="1">
          <mxGeometry relative="1" as="geometry">
            <mxPoint x="155" y="220" as="targetPoint" />
          </mxGeometry>
        </mxCell>
        <mxCell id="eg-5MCdYRZrcCjl5ns9g-3" value="" style="endArrow=classic;html=1;rounded=0;edgeStyle=orthogonalEdgeStyle;entryX=0.5;entryY=1;entryDx=0;entryDy=0;exitX=0.938;exitY=0.474;exitDx=0;exitDy=0;exitPerimeter=0;" parent="2b4e8129b02d487f-1" edge="1">
          <mxGeometry width="50" height="50" relative="1" as="geometry">
            <mxPoint x="434.03999999999996" y="399.9860000000001" as="sourcePoint" />
            <mxPoint x="549" y="110" as="targetPoint" />
            <Array as="points">
              <mxPoint x="549" y="400" />
            </Array>
          </mxGeometry>
        </mxCell>
      </root>
    </mxGraphModel>
  </diagram>
  <diagram name="Page-1 的副本" id="4hg6F2vFtD7_7h2gZxns">
    <mxGraphModel dx="1341" dy="804" grid="1" gridSize="10" guides="1" tooltips="1" connect="1" arrows="1" fold="1" page="1" pageScale="1" pageWidth="1100" pageHeight="850" background="none" math="0" shadow="0">
      <root>
        <mxCell id="1OYm-rZ2bbMsDLSTkXB--0" />
        <mxCell id="1OYm-rZ2bbMsDLSTkXB--1" parent="1OYm-rZ2bbMsDLSTkXB--0" />
        <mxCell id="1OYm-rZ2bbMsDLSTkXB--2" value="Pool" style="swimlane;html=1;childLayout=stackLayout;horizontal=1;startSize=20;horizontalStack=0;rounded=0;shadow=0;labelBackgroundColor=none;strokeWidth=1;fontFamily=Verdana;fontSize=8;align=center;" parent="1OYm-rZ2bbMsDLSTkXB--1" vertex="1">
          <mxGeometry x="180" y="70" width="680" height="470" as="geometry" />
        </mxCell>
        <mxCell id="1OYm-rZ2bbMsDLSTkXB--3" value="客户API" style="swimlane;html=1;startSize=20;horizontal=0;" parent="1OYm-rZ2bbMsDLSTkXB--2" vertex="1">
          <mxGeometry y="20" width="680" height="150" as="geometry" />
        </mxCell>
        <mxCell id="1OYm-rZ2bbMsDLSTkXB--4" style="edgeStyle=orthogonalEdgeStyle;rounded=0;html=1;labelBackgroundColor=none;startArrow=none;startFill=0;startSize=5;endArrow=classicThin;endFill=1;endSize=5;jettySize=auto;orthogonalLoop=1;strokeWidth=1;fontFamily=Verdana;fontSize=8" parent="1OYm-rZ2bbMsDLSTkXB--3" source="1OYm-rZ2bbMsDLSTkXB--5" target="1OYm-rZ2bbMsDLSTkXB--6" edge="1">
          <mxGeometry relative="1" as="geometry" />
        </mxCell>
        <mxCell id="1OYm-rZ2bbMsDLSTkXB--5" value="" style="ellipse;whiteSpace=wrap;html=1;rounded=0;shadow=0;labelBackgroundColor=none;strokeWidth=1;fontFamily=Verdana;fontSize=8;align=center;" parent="1OYm-rZ2bbMsDLSTkXB--3" vertex="1">
          <mxGeometry x="60" y="60" width="30" height="30" as="geometry" />
        </mxCell>
        <mxCell id="1OYm-rZ2bbMsDLSTkXB--6" value="" style="rounded=1;whiteSpace=wrap;html=1;shadow=0;labelBackgroundColor=none;strokeWidth=1;fontFamily=Verdana;fontSize=8;align=center;" parent="1OYm-rZ2bbMsDLSTkXB--3" vertex="1">
          <mxGeometry x="120" y="56.49999999999997" width="70" height="37" as="geometry" />
        </mxCell>
        <mxCell id="1OYm-rZ2bbMsDLSTkXB--7" style="edgeStyle=orthogonalEdgeStyle;rounded=0;html=1;labelBackgroundColor=none;startArrow=none;startFill=0;startSize=5;endArrow=classicThin;endFill=1;endSize=5;jettySize=auto;orthogonalLoop=1;strokeWidth=1;fontFamily=Verdana;fontSize=8" parent="1OYm-rZ2bbMsDLSTkXB--3" source="1OYm-rZ2bbMsDLSTkXB--8" target="1OYm-rZ2bbMsDLSTkXB--9" edge="1">
          <mxGeometry relative="1" as="geometry" />
        </mxCell>
        <mxCell id="1OYm-rZ2bbMsDLSTkXB--8" value="" style="rounded=1;whiteSpace=wrap;html=1;shadow=0;labelBackgroundColor=none;strokeWidth=1;fontFamily=Verdana;fontSize=8;align=center;" parent="1OYm-rZ2bbMsDLSTkXB--3" vertex="1">
          <mxGeometry x="230" y="56.49999999999997" width="70" height="37" as="geometry" />
        </mxCell>
        <mxCell id="1OYm-rZ2bbMsDLSTkXB--9" value="" style="ellipse;whiteSpace=wrap;html=1;rounded=0;shadow=0;labelBackgroundColor=none;strokeWidth=2;fontFamily=Verdana;fontSize=8;align=center;" parent="1OYm-rZ2bbMsDLSTkXB--3" vertex="1">
          <mxGeometry x="330" y="60" width="30" height="30" as="geometry" />
        </mxCell>
        <mxCell id="1OYm-rZ2bbMsDLSTkXB--10" style="edgeStyle=orthogonalEdgeStyle;rounded=0;html=1;entryX=0;entryY=0.5;labelBackgroundColor=none;startArrow=none;startFill=0;startSize=5;endArrow=classicThin;endFill=1;endSize=5;jettySize=auto;orthogonalLoop=1;strokeWidth=1;fontFamily=Verdana;fontSize=8" parent="1OYm-rZ2bbMsDLSTkXB--3" source="1OYm-rZ2bbMsDLSTkXB--11" target="1OYm-rZ2bbMsDLSTkXB--13" edge="1">
          <mxGeometry relative="1" as="geometry" />
        </mxCell>
        <mxCell id="1OYm-rZ2bbMsDLSTkXB--11" value="" style="rounded=1;whiteSpace=wrap;html=1;shadow=0;labelBackgroundColor=none;strokeWidth=1;fontFamily=Verdana;fontSize=8;align=center;" parent="1OYm-rZ2bbMsDLSTkXB--3" vertex="1">
          <mxGeometry x="420" y="56.49999999999997" width="70" height="37" as="geometry" />
        </mxCell>
        <mxCell id="1OYm-rZ2bbMsDLSTkXB--12" style="edgeStyle=orthogonalEdgeStyle;rounded=0;html=1;labelBackgroundColor=none;startArrow=none;startFill=0;startSize=5;endArrow=classicThin;endFill=1;endSize=5;jettySize=auto;orthogonalLoop=1;strokeWidth=1;fontFamily=Verdana;fontSize=8" parent="1OYm-rZ2bbMsDLSTkXB--3" source="1OYm-rZ2bbMsDLSTkXB--13" target="1OYm-rZ2bbMsDLSTkXB--14" edge="1">
          <mxGeometry relative="1" as="geometry" />
        </mxCell>
        <mxCell id="1OYm-rZ2bbMsDLSTkXB--13" value="" style="shape=mxgraph.bpmn.shape;html=1;verticalLabelPosition=bottom;labelBackgroundColor=#ffffff;verticalAlign=top;perimeter=rhombusPerimeter;background=gateway;outline=none;symbol=parallelGw;rounded=1;shadow=0;strokeWidth=1;fontFamily=Verdana;fontSize=8;align=center;" parent="1OYm-rZ2bbMsDLSTkXB--3" vertex="1">
          <mxGeometry x="550" y="60" width="30" height="30" as="geometry" />
        </mxCell>
        <mxCell id="1OYm-rZ2bbMsDLSTkXB--14" value="" style="ellipse;whiteSpace=wrap;html=1;rounded=0;shadow=0;labelBackgroundColor=none;strokeWidth=2;fontFamily=Verdana;fontSize=8;align=center;" parent="1OYm-rZ2bbMsDLSTkXB--3" vertex="1">
          <mxGeometry x="610" y="60" width="30" height="30" as="geometry" />
        </mxCell>
        <mxCell id="1OYm-rZ2bbMsDLSTkXB--15" value="KDN-EX" style="swimlane;html=1;startSize=20;horizontal=0;" parent="1OYm-rZ2bbMsDLSTkXB--2" vertex="1">
          <mxGeometry y="170" width="680" height="150" as="geometry" />
        </mxCell>
        <mxCell id="1OYm-rZ2bbMsDLSTkXB--16" style="edgeStyle=orthogonalEdgeStyle;rounded=0;html=1;labelBackgroundColor=none;startArrow=none;startFill=0;startSize=5;endArrow=classicThin;endFill=1;endSize=5;jettySize=auto;orthogonalLoop=1;strokeWidth=1;fontFamily=Verdana;fontSize=8" parent="1OYm-rZ2bbMsDLSTkXB--15" source="1OYm-rZ2bbMsDLSTkXB--17" target="1OYm-rZ2bbMsDLSTkXB--18" edge="1">
          <mxGeometry relative="1" as="geometry" />
        </mxCell>
        <mxCell id="1OYm-rZ2bbMsDLSTkXB--17" value="" style="rounded=1;whiteSpace=wrap;html=1;shadow=0;labelBackgroundColor=none;strokeWidth=1;fontFamily=Verdana;fontSize=8;align=center;" parent="1OYm-rZ2bbMsDLSTkXB--15" vertex="1">
          <mxGeometry x="120" y="49.99999999999996" width="70" height="37" as="geometry" />
        </mxCell>
        <mxCell id="1OYm-rZ2bbMsDLSTkXB--18" value="" style="strokeWidth=1;html=1;shape=mxgraph.flowchart.decision;whiteSpace=wrap;rounded=1;shadow=0;labelBackgroundColor=none;fontFamily=Verdana;fontSize=8;align=center;" parent="1OYm-rZ2bbMsDLSTkXB--15" vertex="1">
          <mxGeometry x="250" y="53.499999999999915" width="30" height="30" as="geometry" />
        </mxCell>
        <mxCell id="1OYm-rZ2bbMsDLSTkXB--19" value="KDN渠道" style="swimlane;html=1;startSize=20;horizontal=0;" parent="1OYm-rZ2bbMsDLSTkXB--2" vertex="1">
          <mxGeometry y="320" width="680" height="150" as="geometry" />
        </mxCell>
        <mxCell id="1OYm-rZ2bbMsDLSTkXB--20" style="edgeStyle=orthogonalEdgeStyle;rounded=0;html=1;labelBackgroundColor=none;startArrow=none;startFill=0;startSize=5;endArrow=classicThin;endFill=1;endSize=5;jettySize=auto;orthogonalLoop=1;strokeWidth=1;fontFamily=Verdana;fontSize=8;" parent="1OYm-rZ2bbMsDLSTkXB--19" source="1OYm-rZ2bbMsDLSTkXB--21" target="1OYm-rZ2bbMsDLSTkXB--23" edge="1">
          <mxGeometry relative="1" as="geometry" />
        </mxCell>
        <mxCell id="1OYm-rZ2bbMsDLSTkXB--21" value="" style="rounded=1;whiteSpace=wrap;html=1;shadow=0;labelBackgroundColor=none;strokeWidth=1;fontFamily=Verdana;fontSize=8;align=center;" parent="1OYm-rZ2bbMsDLSTkXB--19" vertex="1">
          <mxGeometry x="230" y="57.00000000000003" width="70" height="37" as="geometry" />
        </mxCell>
        <mxCell id="1OYm-rZ2bbMsDLSTkXB--22" value="Yes" style="edgeStyle=orthogonalEdgeStyle;rounded=0;html=1;entryX=0;entryY=0.5;labelBackgroundColor=none;startArrow=none;startFill=0;startSize=5;endArrow=classicThin;endFill=1;endSize=5;jettySize=auto;orthogonalLoop=1;strokeWidth=1;fontFamily=Verdana;fontSize=8" parent="1OYm-rZ2bbMsDLSTkXB--19" source="1OYm-rZ2bbMsDLSTkXB--23" target="1OYm-rZ2bbMsDLSTkXB--25" edge="1">
          <mxGeometry x="-0.5006" y="6" relative="1" as="geometry">
            <mxPoint as="offset" />
          </mxGeometry>
        </mxCell>
        <mxCell id="1OYm-rZ2bbMsDLSTkXB--23" value="" style="strokeWidth=1;html=1;shape=mxgraph.flowchart.decision;whiteSpace=wrap;rounded=1;shadow=0;labelBackgroundColor=none;fontFamily=Verdana;fontSize=8;align=center;" parent="1OYm-rZ2bbMsDLSTkXB--19" vertex="1">
          <mxGeometry x="330" y="60.500000000000064" width="30" height="30" as="geometry" />
        </mxCell>
        <mxCell id="1OYm-rZ2bbMsDLSTkXB--24" style="edgeStyle=orthogonalEdgeStyle;rounded=0;html=1;labelBackgroundColor=none;startArrow=none;startFill=0;startSize=5;endArrow=classicThin;endFill=1;endSize=5;jettySize=auto;orthogonalLoop=1;strokeColor=#000000;strokeWidth=1;fontFamily=Verdana;fontSize=8;fontColor=#000000;" parent="1OYm-rZ2bbMsDLSTkXB--19" source="1OYm-rZ2bbMsDLSTkXB--25" target="1OYm-rZ2bbMsDLSTkXB--26" edge="1">
          <mxGeometry relative="1" as="geometry" />
        </mxCell>
        <mxCell id="1OYm-rZ2bbMsDLSTkXB--25" value="" style="shape=mxgraph.bpmn.shape;html=1;verticalLabelPosition=bottom;labelBackgroundColor=#ffffff;verticalAlign=top;perimeter=rhombusPerimeter;background=gateway;outline=none;symbol=parallelGw;rounded=1;shadow=0;strokeWidth=1;fontFamily=Verdana;fontSize=8;align=center;" parent="1OYm-rZ2bbMsDLSTkXB--19" vertex="1">
          <mxGeometry x="440" y="60.500000000000064" width="30" height="30" as="geometry" />
        </mxCell>
        <mxCell id="1OYm-rZ2bbMsDLSTkXB--26" value="" style="rounded=1;whiteSpace=wrap;html=1;shadow=0;labelBackgroundColor=none;strokeWidth=1;fontFamily=Verdana;fontSize=8;align=center;" parent="1OYm-rZ2bbMsDLSTkXB--19" vertex="1">
          <mxGeometry x="530" y="57" width="70" height="37" as="geometry" />
        </mxCell>
        <mxCell id="1OYm-rZ2bbMsDLSTkXB--27" style="edgeStyle=orthogonalEdgeStyle;rounded=0;html=1;labelBackgroundColor=none;startArrow=none;startFill=0;startSize=5;endArrow=classicThin;endFill=1;endSize=5;jettySize=auto;orthogonalLoop=1;strokeWidth=1;fontFamily=Verdana;fontSize=8" parent="1OYm-rZ2bbMsDLSTkXB--2" source="1OYm-rZ2bbMsDLSTkXB--6" target="1OYm-rZ2bbMsDLSTkXB--17" edge="1">
          <mxGeometry relative="1" as="geometry" />
        </mxCell>
        <mxCell id="1OYm-rZ2bbMsDLSTkXB--28" value="No" style="edgeStyle=orthogonalEdgeStyle;rounded=0;html=1;labelBackgroundColor=none;startArrow=none;startFill=0;startSize=5;endArrow=classicThin;endFill=1;endSize=5;jettySize=auto;orthogonalLoop=1;strokeWidth=1;fontFamily=Verdana;fontSize=8" parent="1OYm-rZ2bbMsDLSTkXB--2" source="1OYm-rZ2bbMsDLSTkXB--18" target="1OYm-rZ2bbMsDLSTkXB--8" edge="1">
          <mxGeometry x="-0.9364" y="-15" relative="1" as="geometry">
            <mxPoint as="offset" />
          </mxGeometry>
        </mxCell>
        <mxCell id="1OYm-rZ2bbMsDLSTkXB--29" value="Yes" style="edgeStyle=orthogonalEdgeStyle;rounded=0;html=1;labelBackgroundColor=none;startArrow=none;startFill=0;startSize=5;endArrow=classicThin;endFill=1;endSize=5;jettySize=auto;orthogonalLoop=1;strokeWidth=1;fontFamily=Verdana;fontSize=8" parent="1OYm-rZ2bbMsDLSTkXB--2" source="1OYm-rZ2bbMsDLSTkXB--18" target="1OYm-rZ2bbMsDLSTkXB--21" edge="1">
          <mxGeometry x="-0.8947" y="15" relative="1" as="geometry">
            <mxPoint as="offset" />
          </mxGeometry>
        </mxCell>
        <mxCell id="1OYm-rZ2bbMsDLSTkXB--30" style="edgeStyle=orthogonalEdgeStyle;rounded=0;html=1;entryX=0.5;entryY=1;labelBackgroundColor=none;startArrow=none;startFill=0;startSize=5;endArrow=classicThin;endFill=1;endSize=5;jettySize=auto;orthogonalLoop=1;strokeWidth=1;fontFamily=Verdana;fontSize=8" parent="1OYm-rZ2bbMsDLSTkXB--2" source="1OYm-rZ2bbMsDLSTkXB--26" target="1OYm-rZ2bbMsDLSTkXB--13" edge="1">
          <mxGeometry relative="1" as="geometry" />
        </mxCell>
        <mxCell id="1OYm-rZ2bbMsDLSTkXB--31" value="No" style="edgeStyle=orthogonalEdgeStyle;rounded=0;html=1;labelBackgroundColor=none;startArrow=none;startFill=0;startSize=5;endArrow=classicThin;endFill=1;endSize=5;jettySize=auto;orthogonalLoop=1;strokeWidth=1;fontFamily=Verdana;fontSize=8" parent="1OYm-rZ2bbMsDLSTkXB--2" source="1OYm-rZ2bbMsDLSTkXB--23" target="1OYm-rZ2bbMsDLSTkXB--17" edge="1">
          <mxGeometry x="-0.9529" y="15" relative="1" as="geometry">
            <Array as="points">
              <mxPoint x="345" y="440" />
              <mxPoint x="155" y="440" />
            </Array>
            <mxPoint as="offset" />
          </mxGeometry>
        </mxCell>
        <mxCell id="1OYm-rZ2bbMsDLSTkXB--32" style="edgeStyle=orthogonalEdgeStyle;rounded=0;html=1;labelBackgroundColor=none;startArrow=none;startFill=0;startSize=5;endArrow=classicThin;endFill=1;endSize=5;jettySize=auto;orthogonalLoop=1;strokeWidth=1;fontFamily=Verdana;fontSize=8" parent="1OYm-rZ2bbMsDLSTkXB--2" source="1OYm-rZ2bbMsDLSTkXB--25" target="1OYm-rZ2bbMsDLSTkXB--11" edge="1">
          <mxGeometry relative="1" as="geometry" />
        </mxCell>
      </root>
    </mxGraphModel>
  </diagram>
  <diagram id="Ut9EoubrjI1ebRrbbgLI" name="第 3 页">
    <mxGraphModel dx="1341" dy="804" grid="1" gridSize="10" guides="1" tooltips="1" connect="1" arrows="1" fold="1" page="1" pageScale="1" pageWidth="827" pageHeight="1169" math="0" shadow="0">
      <root>
        <mxCell id="0" />
        <mxCell id="1" parent="0" />
        <mxCell id="z_uPyNCzf6nOOf_IbNFa-1" value="物品类型名称&lt;br&gt;&lt;br&gt;物品类型编码&lt;br&gt;&lt;br&gt;物品类型状态" style="rounded=0;whiteSpace=wrap;html=1;" parent="1" vertex="1">
          <mxGeometry x="150" y="230" width="120" height="340" as="geometry" />
        </mxCell>
        <mxCell id="z_uPyNCzf6nOOf_IbNFa-2" value="新增/修改/查询" style="rounded=0;whiteSpace=wrap;html=1;" parent="1" vertex="1">
          <mxGeometry x="380" y="230" width="120" height="340" as="geometry" />
        </mxCell>
        <mxCell id="z_uPyNCzf6nOOf_IbNFa-3" value="有效物品类型" style="rounded=0;whiteSpace=wrap;html=1;" parent="1" vertex="1">
          <mxGeometry x="600" y="230" width="120" height="340" as="geometry" />
        </mxCell>
        <mxCell id="z_uPyNCzf6nOOf_IbNFa-4" value="输入" style="text;html=1;align=center;verticalAlign=middle;resizable=0;points=[];autosize=1;strokeColor=none;fillColor=none;" parent="1" vertex="1">
          <mxGeometry x="185" y="195" width="50" height="30" as="geometry" />
        </mxCell>
        <mxCell id="z_uPyNCzf6nOOf_IbNFa-5" value="处理" style="text;html=1;align=center;verticalAlign=middle;resizable=0;points=[];autosize=1;strokeColor=none;fillColor=none;" parent="1" vertex="1">
          <mxGeometry x="415" y="195" width="50" height="30" as="geometry" />
        </mxCell>
        <mxCell id="z_uPyNCzf6nOOf_IbNFa-6" value="输出" style="text;html=1;align=center;verticalAlign=middle;resizable=0;points=[];autosize=1;strokeColor=none;fillColor=none;" parent="1" vertex="1">
          <mxGeometry x="635" y="195" width="50" height="30" as="geometry" />
        </mxCell>
        <mxCell id="z_uPyNCzf6nOOf_IbNFa-9" value="" style="shape=flexArrow;endArrow=classic;html=1;rounded=0;" parent="1" edge="1">
          <mxGeometry width="50" height="50" relative="1" as="geometry">
            <mxPoint x="300" y="380" as="sourcePoint" />
            <mxPoint x="360" y="380" as="targetPoint" />
          </mxGeometry>
        </mxCell>
        <mxCell id="z_uPyNCzf6nOOf_IbNFa-10" value="" style="shape=flexArrow;endArrow=classic;html=1;rounded=0;" parent="1" edge="1">
          <mxGeometry width="50" height="50" relative="1" as="geometry">
            <mxPoint x="520" y="380" as="sourcePoint" />
            <mxPoint x="580" y="380" as="targetPoint" />
          </mxGeometry>
        </mxCell>
      </root>
    </mxGraphModel>
  </diagram>
  <diagram name="第 3 页 的副本" id="yEQyQv7hg_BRsbAuuYW7">
    <mxGraphModel dx="1341" dy="804" grid="1" gridSize="10" guides="1" tooltips="1" connect="1" arrows="1" fold="1" page="1" pageScale="1" pageWidth="827" pageHeight="1169" math="0" shadow="0">
      <root>
        <mxCell id="OBJnVhKa9Z9ecdW9sOdb-0" />
        <mxCell id="OBJnVhKa9Z9ecdW9sOdb-1" parent="OBJnVhKa9Z9ecdW9sOdb-0" />
        <mxCell id="OBJnVhKa9Z9ecdW9sOdb-2" value="物品类型" style="rounded=0;whiteSpace=wrap;html=1;" vertex="1" parent="OBJnVhKa9Z9ecdW9sOdb-1">
          <mxGeometry x="150" y="230" width="120" height="340" as="geometry" />
        </mxCell>
        <mxCell id="OBJnVhKa9Z9ecdW9sOdb-3" value="KDN物品类型编码&lt;br&gt;&lt;br&gt;转化" style="rounded=0;whiteSpace=wrap;html=1;" vertex="1" parent="OBJnVhKa9Z9ecdW9sOdb-1">
          <mxGeometry x="380" y="230" width="120" height="340" as="geometry" />
        </mxCell>
        <mxCell id="OBJnVhKa9Z9ecdW9sOdb-4" value="渠道物品类型编码" style="rounded=0;whiteSpace=wrap;html=1;" vertex="1" parent="OBJnVhKa9Z9ecdW9sOdb-1">
          <mxGeometry x="600" y="230" width="120" height="340" as="geometry" />
        </mxCell>
        <mxCell id="OBJnVhKa9Z9ecdW9sOdb-5" value="输入" style="text;html=1;align=center;verticalAlign=middle;resizable=0;points=[];autosize=1;strokeColor=none;fillColor=none;" vertex="1" parent="OBJnVhKa9Z9ecdW9sOdb-1">
          <mxGeometry x="185" y="195" width="50" height="30" as="geometry" />
        </mxCell>
        <mxCell id="OBJnVhKa9Z9ecdW9sOdb-6" value="处理" style="text;html=1;align=center;verticalAlign=middle;resizable=0;points=[];autosize=1;strokeColor=none;fillColor=none;" vertex="1" parent="OBJnVhKa9Z9ecdW9sOdb-1">
          <mxGeometry x="415" y="195" width="50" height="30" as="geometry" />
        </mxCell>
        <mxCell id="OBJnVhKa9Z9ecdW9sOdb-7" value="输出" style="text;html=1;align=center;verticalAlign=middle;resizable=0;points=[];autosize=1;strokeColor=none;fillColor=none;" vertex="1" parent="OBJnVhKa9Z9ecdW9sOdb-1">
          <mxGeometry x="635" y="195" width="50" height="30" as="geometry" />
        </mxCell>
        <mxCell id="OBJnVhKa9Z9ecdW9sOdb-8" value="" style="shape=flexArrow;endArrow=classic;html=1;rounded=0;" edge="1" parent="OBJnVhKa9Z9ecdW9sOdb-1">
          <mxGeometry width="50" height="50" relative="1" as="geometry">
            <mxPoint x="300" y="380" as="sourcePoint" />
            <mxPoint x="360" y="380" as="targetPoint" />
          </mxGeometry>
        </mxCell>
        <mxCell id="OBJnVhKa9Z9ecdW9sOdb-9" value="" style="shape=flexArrow;endArrow=classic;html=1;rounded=0;" edge="1" parent="OBJnVhKa9Z9ecdW9sOdb-1">
          <mxGeometry width="50" height="50" relative="1" as="geometry">
            <mxPoint x="520" y="380" as="sourcePoint" />
            <mxPoint x="580" y="380" as="targetPoint" />
          </mxGeometry>
        </mxCell>
      </root>
    </mxGraphModel>
  </diagram>
</mxfile>
